# xmcd
# 
# Track frame offsets:
#     150
#     19742
#     38765
#     59515
#     79332
# 
# Disc length: 1109
# 
# Revision: 2
# Processed by: cddbd v1.5.2PL0 Copyright (c) Steve Scherf et al.
# Submitted via: BonkEnc v1.0.8
# 
DISCID=39045305
DTITLE=遊助 - ライオン
DYEAR=2010
DGENRE=JPop
TTITLE0=ライオン
TTITLE1=遅刻のうた
TTITLE2=夢は現状維持！
TTITLE3=ライオン(instrumental)
TTITLE4=鰯と卵の親子丼
EXTD=
EXTT0=
EXTT1=
EXTT2=
EXTT3=
EXTT4=
PLAYORDER=
